<svg width="26" height="26" viewBox="0 0 26 26" fill="none" xmlns="http://www.w3.org/2000/svg">
<path d="M15.9801 14.6807C15.361 15.2998 14.5292 15.6042 13.6556 15.6C12.784 15.5958 11.9398 15.2841 11.3061 14.6679L10.3741 13.7617L8.56155 15.6257L9.49358 16.532C10.6545 17.6608 12.1643 18.1928 13.6431 18.1999C15.1298 18.2071 16.6546 17.6832 17.8186 16.5192L23.0186 11.3192C24.1926 10.1452 24.6994 8.62175 24.6994 7.15C24.6994 5.67824 24.1926 4.15479 23.0186 2.98075C21.8445 1.80671 20.3211 1.30001 18.8494 1.3C17.3776 1.29999 15.8542 1.8067 14.6801 2.98075L13.7609 3.89999L15.5993 5.73847L16.5186 4.81923C17.1395 4.19835 17.9686 3.9 18.8494 3.9C19.7302 3.9 20.5592 4.19836 21.1801 4.81923C21.801 5.44012 22.0994 6.26922 22.0994 7.15C22.0994 8.03078 21.801 8.85987 21.1801 9.48075L15.9801 14.6807Z" fill="#F5D100"/>
<path d="M10.0192 11.3192C10.6383 10.7002 11.4702 10.3958 12.3437 10.4C13.2154 10.4042 14.0595 10.7158 14.6932 11.332L15.6253 12.2383L17.4378 10.3743L16.5058 9.46798C15.3449 8.33915 13.8351 7.80715 12.3563 7.80003C10.8696 7.79286 9.3448 8.31674 8.18076 9.48077L2.98077 14.6807C1.80673 15.8548 1.3 17.3782 1.3 18.85C1.3 20.3217 1.80675 21.8452 2.98078 23.0192C4.15483 24.1932 5.67827 24.6999 7.14999 24.7C8.62173 24.7 10.1452 24.1933 11.3193 23.0192L12.2385 22.1L10.4 20.2615L9.48078 21.1807C8.8599 21.8016 8.03081 22.1 7.15001 22.1C6.26921 22.0999 5.44013 21.8016 4.81926 21.1807C4.19837 20.5598 3.9 19.7307 3.9 18.8499C3.9 17.9692 4.19836 17.1401 4.81925 16.5192L10.0192 11.3192Z" fill="#F5D100"/>
<path fill-rule="evenodd" clip-rule="evenodd" d="M9.1 0H6.5V5.2H9.1V0ZM5.2 6.5H0V9.1H5.2V6.5ZM16.9 20.8H19.5V26H16.9V20.8ZM26 16.9H20.8V19.5H26V16.9Z" fill="#F5D100"/>
</svg>
