<?xml version="1.0" standalone="no"?>
<!DOCTYPE svg PUBLIC "-//W3C//DTD SVG 20010904//EN"
 "http://www.w3.org/TR/2001/REC-SVG-20010904/DTD/svg10.dtd">
<svg version="1.0" xmlns="http://www.w3.org/2000/svg"
 width="470.000000pt" height="470.000000pt" viewBox="0 0 470.000000 470.000000"
 preserveAspectRatio="xMidYMid meet">
<metadata>
Created by potrace 1.14, written by Peter Selinger 2001-2017
</metadata>
<g transform="translate(0.000000,470.000000) scale(0.100000,-0.100000)"
fill="#000000" stroke="none">
<path d="M0 2350 l0 -2350 2350 0 2350 0 0 2350 0 2350 -2350 0 -2350 0 0
-2350z m1423 635 c188 -40 320 -160 372 -338 19 -65 22 -226 6 -299 -61 -269
-280 -438 -571 -438 -314 0 -524 219 -523 545 0 166 52 294 157 393 75 70 142
107 238 132 89 23 226 25 321 5z m855 -176 c166 -217 548 -695 562 -704 19
-12 10 776 -9 798 -7 9 -35 20 -62 23 -41 6 -49 10 -49 28 0 21 4 21 165 21
161 0 165 0 165 -21 0 -18 -8 -22 -52 -27 -28 -4 -56 -11 -62 -17 -8 -8 -12
-169 -14 -506 -3 -462 -4 -495 -20 -490 -9 3 -37 10 -62 15 -33 7 -54 20 -78
48 -34 38 -313 386 -542 675 l-125 157 -3 -322 c-2 -177 0 -359 3 -404 7 -80
7 -82 37 -92 17 -6 44 -11 59 -11 23 0 29 -4 29 -22 0 -23 -1 -23 -165 -24
-162 0 -165 0 -165 21 0 19 8 23 58 31 l57 9 7 45 c3 25 7 223 7 440 1 450 4
434 -77 446 -48 7 -64 18 -56 39 3 8 45 11 136 10 l131 -2 125 -164z m1618
131 c-3 -19 -9 -72 -12 -117 -6 -77 -9 -83 -29 -83 -20 0 -23 6 -29 69 l-7 69
-42 10 c-65 16 -218 25 -291 17 l-65 -6 -3 -180 c-2 -99 0 -190 5 -201 7 -20
13 -20 153 -16 159 5 164 7 164 65 0 44 9 63 31 63 18 0 19 -10 19 -171 l0
-170 -22 3 c-20 3 -24 11 -30 62 -4 33 -13 63 -20 67 -21 13 -108 20 -208 17
l-95 -3 -3 -219 -2 -218 197 4 c111 3 210 9 224 16 22 9 29 23 46 89 16 66 22
78 41 81 23 3 23 3 17 -105 -4 -59 -8 -117 -10 -129 -5 -21 -6 -21 -365 -20
-316 1 -360 3 -360 16 0 9 13 23 29 33 23 14 29 25 34 69 10 83 8 814 -2 841
-8 21 -19 26 -65 31 -49 7 -56 10 -56 29 l0 22 381 0 381 0 -6 -35z"/>
<path d="M1134 2926 c-137 -33 -227 -132 -260 -285 -57 -268 61 -569 251 -640
153 -57 325 -25 419 80 128 141 152 451 50 651 -81 160 -271 240 -460 194z"/>
</g>
</svg>
