<svg width="150" height="150" fill="none" xmlns="http://www.w3.org/2000/svg"><path d="M64.534 10.903c5.71-5.948 15.222-5.948 20.932 0l.875.912a14.507 14.507 0 0 0 13.799 4.073l1.204-.284c7.991-1.886 15.954 3.23 17.56 11.281l.303 1.52a14.508 14.508 0 0 0 9.322 10.815l1.411.507c7.668 2.755 11.564 11.283 8.626 18.883l-.634 1.64a14.51 14.51 0 0 0 2.009 14.045L141 75.68c4.94 6.458 3.609 15.714-2.95 20.518l-1.329.973a14.505 14.505 0 0 0-5.882 12.948l.144 1.68c.702 8.148-5.467 15.264-13.632 15.727l-1.345.077a14.504 14.504 0 0 0-12.044 7.781l-.644 1.235c-3.805 7.304-12.92 9.979-20.068 5.891l-1.048-.599a14.503 14.503 0 0 0-14.404 0l-1.048.599c-7.149 4.088-16.263 1.413-20.068-5.891l-.644-1.235a14.507 14.507 0 0 0-12.044-7.781l-1.345-.077c-8.165-.463-14.334-7.579-13.632-15.727l.144-1.68a14.508 14.508 0 0 0-5.882-12.948l-1.329-.973C5.391 91.394 4.06 82.138 9 75.68l1.059-1.385a14.507 14.507 0 0 0 2.009-14.045l-.634-1.64c-2.938-7.6.958-16.128 8.626-18.883l1.411-.507a14.507 14.507 0 0 0 9.322-10.815l.303-1.52c1.606-8.052 9.569-13.167 17.56-11.281l1.204.284a14.507 14.507 0 0 0 13.799-4.073l.875-.912z" fill="#F5D100"/><path d="M64.534 10.903c5.71-5.948 15.222-5.948 20.932 0l.875.912a14.507 14.507 0 0 0 13.799 4.073l1.204-.284c7.991-1.886 15.954 3.23 17.56 11.281l.303 1.52a14.508 14.508 0 0 0 9.322 10.815l1.411.507c7.668 2.755 11.564 11.283 8.626 18.883l-.634 1.64a14.51 14.51 0 0 0 2.009 14.045L141 75.68c4.94 6.458 3.609 15.714-2.95 20.518l-1.329.973a14.505 14.505 0 0 0-5.882 12.948l.144 1.68c.702 8.148-5.467 15.264-13.632 15.727l-1.345.077a14.504 14.504 0 0 0-12.044 7.781l-.644 1.235c-3.805 7.304-12.92 9.979-20.068 5.891l-1.048-.599a14.503 14.503 0 0 0-14.404 0l-1.048.599c-7.149 4.088-16.263 1.413-20.068-5.891l-.644-1.235a14.507 14.507 0 0 0-12.044-7.781l-1.345-.077c-8.165-.463-14.334-7.579-13.632-15.727l.144-1.68a14.508 14.508 0 0 0-5.882-12.948l-1.329-.973C5.391 91.394 4.06 82.138 9 75.68l1.059-1.385a14.507 14.507 0 0 0 2.009-14.045l-.634-1.64c-2.938-7.6.958-16.128 8.626-18.883l1.411-.507a14.507 14.507 0 0 0 9.322-10.815l.303-1.52c1.606-8.052 9.569-13.167 17.56-11.281l1.204.284a14.507 14.507 0 0 0 13.799-4.073l.875-.912z" fill="#fff" fill-opacity=".1"/><path d="M23 76.016c0-28.719 23.28-52 52-52 28.718 0 51.999 23.281 51.999 52v1.07c0 28.718-23.281 51.999-52 51.999-28.718 0-52-23.281-52-52v-1.069z" fill="#000" fill-opacity=".04"/><path d="M28.416 76.016c0-25.727 20.856-46.583 46.583-46.583 25.728 0 46.584 20.856 46.584 46.583v1.07c0 25.727-20.856 46.583-46.584 46.583-25.727 0-46.583-20.856-46.583-46.584v-1.069z" stroke="#fff" stroke-opacity=".3" stroke-width="10.833"/><path opacity=".8" d="m66.43 86.044-9.984-10.087a2.851 2.851 0 0 0-2.029-.85c-.761 0-1.49.305-2.029.85a2.916 2.916 0 0 0 0 4.099l12.028 12.15a2.845 2.845 0 0 0 4.057 0l30.443-30.755a2.916 2.916 0 0 0 0-4.099 2.85 2.85 0 0 0-2.029-.85 2.85 2.85 0 0 0-2.028.85L66.43 86.044z" fill="#fff" stroke="#fff" stroke-width="3"/><path d="M127.703 77.027c0 29.107-23.596 52.703-52.703 52.703-29.107 0-52.703-23.596-52.703-52.703 0-29.107 23.596-52.703 52.703-52.703 29.107 0 52.703 23.596 52.703 52.703zm-94.555 0c0 23.115 18.738 41.853 41.852 41.853 23.115 0 41.853-18.738 41.853-41.853 0-23.114-18.738-41.852-41.853-41.852-23.114 0-41.852 18.738-41.852 41.852z" fill="#fff" fill-opacity=".5"/></svg>