<svg width="150" height="153" fill="none" xmlns="http://www.w3.org/2000/svg"><g filter="url(#a)"><mask id="b" fill="#fff"><path d="M64.592 10.842c5.678-5.915 15.138-5.915 20.816 0l.965 1.006a14.427 14.427 0 0 0 13.722 4.05l1.33-.314c7.947-1.876 15.865 3.212 17.463 11.219l.328 1.646a14.427 14.427 0 0 0 9.27 10.755l1.531.55c7.626 2.74 11.501 11.221 8.579 18.78l-.68 1.758a14.426 14.426 0 0 0 1.998 13.967l1.136 1.485c4.913 6.422 3.589 15.627-2.934 20.405l-1.432 1.048a14.427 14.427 0 0 0-5.849 12.876l.155 1.807c.698 8.103-5.437 15.181-13.557 15.641l-1.472.084a14.426 14.426 0 0 0-11.978 7.738l-.703 1.35c-3.784 7.263-12.849 9.924-19.958 5.858l-1.16-.664a14.427 14.427 0 0 0-14.325 0l-1.16.664c-7.109 4.066-16.173 1.405-19.957-5.858l-.703-1.35c-2.35-4.51-6.9-7.45-11.978-7.738l-1.472-.084c-8.12-.46-14.255-7.538-13.557-15.641l.155-1.807a14.427 14.427 0 0 0-5.85-12.876l-1.43-1.048C5.36 91.37 4.036 82.166 8.95 75.744l1.136-1.485a14.427 14.427 0 0 0 1.998-13.967l-.68-1.759c-2.922-7.558.953-16.04 8.579-18.779l1.53-.55a14.427 14.427 0 0 0 9.271-10.755l.328-1.646c1.598-8.007 9.516-13.095 17.463-11.219l1.33.314a14.427 14.427 0 0 0 13.722-4.05l.965-1.006z"/></mask><path d="M64.592 10.842c5.678-5.915 15.138-5.915 20.816 0l.965 1.006a14.427 14.427 0 0 0 13.722 4.05l1.33-.314c7.947-1.876 15.865 3.212 17.463 11.219l.328 1.646a14.427 14.427 0 0 0 9.27 10.755l1.531.55c7.626 2.74 11.501 11.221 8.579 18.78l-.68 1.758a14.426 14.426 0 0 0 1.998 13.967l1.136 1.485c4.913 6.422 3.589 15.627-2.934 20.405l-1.432 1.048a14.427 14.427 0 0 0-5.849 12.876l.155 1.807c.698 8.103-5.437 15.181-13.557 15.641l-1.472.084a14.426 14.426 0 0 0-11.978 7.738l-.703 1.35c-3.784 7.263-12.849 9.924-19.958 5.858l-1.16-.664a14.427 14.427 0 0 0-14.325 0l-1.16.664c-7.109 4.066-16.173 1.405-19.957-5.858l-.703-1.35c-2.35-4.51-6.9-7.45-11.978-7.738l-1.472-.084c-8.12-.46-14.255-7.538-13.557-15.641l.155-1.807a14.427 14.427 0 0 0-5.85-12.876l-1.43-1.048C5.36 91.37 4.036 82.166 8.95 75.744l1.136-1.485a14.427 14.427 0 0 0 1.998-13.967l-.68-1.759c-2.922-7.558.953-16.04 8.579-18.779l1.53-.55a14.427 14.427 0 0 0 9.271-10.755l.328-1.646c1.598-8.007 9.516-13.095 17.463-11.219l1.33.314a14.427 14.427 0 0 0 13.722-4.05l.965-1.006z" fill="#B4C2CF"/><path d="M63.627 11.848 18.539-31.433l45.088 43.28zM31.112 26.803l-61.291-12.226 61.291 12.226zm17.463-11.219 14.358-60.827-14.358 60.827zm-27.061 23.62L.382-19.615l21.132 58.819zm9.27-10.755-61.292-12.227L30.784 28.45zm-20.698 45.81-49.641-37.973L10.086 74.26zm1.798 21.89-36.928 50.422 36.928-50.422zm1.432 1.048-36.929 50.422 36.929-50.422zm32.701 38.146-55.429 28.875 55.43-28.875zm-11.978-7.738-3.538 62.399 3.538-62.399zm32.639 14.946 31.029 54.252-31.03-54.252zm-19.958-5.858-55.429 28.875 55.43-28.875zm35.442 5.194L51.133 196.14l31.03-54.253zm-14.325 0 31.03 54.253-31.03-54.253zm35.443-5.194-55.43-28.876 55.43 28.876zm-19.958 5.858-31.029 54.252 31.03-54.252zm20.661-7.208-55.43-28.875 55.43 28.875zm27.007-23.463-62.269 5.36 62.269-5.36zm-13.557 15.641-3.538-62.399 3.538 62.399zm19.251-30.324 36.929 50.422-36.929-50.422zm-5.849 12.876 62.269-5.359-62.269 5.359zm10.215-34.329 49.642-37.972-49.642 37.972zm-2.934 20.405 36.928 50.422-36.928-50.422zm-.2-35.857L79.621 37.756l58.295 22.536zm-7.899-20.538-21.131 58.819 21.131-58.819zm8.579 18.78 58.295 22.534-58.295-22.535zm-19.38-30.085 61.292-12.227-61.292 12.227zm9.27 10.755 21.132-58.819-21.132 58.819zm-27.061-23.62L87.067-45.243l14.358 60.827zm-1.33.314L85.737-44.929l14.358 60.827zm-35.503-5.056 45.088 43.281-45.088-43.28zM40.32 54.123l.965 1.006 90.176-86.562-.965-1.006L40.32 54.123zm74.134 22.603 1.33-.314L87.067-45.243l-1.33.314 28.717 121.655zM57.596 39.029l.328 1.646 122.584-24.452-.329-1.646L57.596 39.03zm49.758 58.993 1.532.55 42.263-117.636-1.531-.55-42.264 117.636zM80.301 35.998l-.68 1.758 116.59 45.07.68-1.758-116.59-45.07zm9.971 76.233 1.137 1.486 99.283-75.945-1.137-1.486-99.283 75.945zm10.915-66.505-1.432 1.049 73.858 100.844 1.431-1.048-73.857-100.845zm-32.621 69.707.155 1.807 124.538-10.719-.155-1.807-124.538 10.719zm45.329-50.31-1.473.083 7.077 124.798 1.473-.084-7.077-124.798zm-65.341 41.345-.703 1.349 110.858 57.751.703-1.35-110.858-57.75zm65.797-18.17-1.159-.663L51.133 196.14l1.16.663 62.058-108.505zm-77.543-.663-1.16.663 62.059 108.505 1.16-.663L36.808 87.635zm65.341 20.182-.703-1.349-110.858 57.75.703 1.35 110.858-57.751zM37.577 65.206l-1.472-.084-7.077 124.798 1.473.084 7.076-124.798zM81.28 117.24l.155-1.807-124.538-10.719-.155 1.807L81.279 117.24zM50.245 46.775l-1.432-1.049-73.858 100.845 1.432 1.048L50.245 46.775zm8.346 66.942 1.137-1.486-99.283-75.945-1.137 1.486 99.283 75.945zm11.788-75.96-.68-1.76-116.59 45.071.68 1.759 116.59-45.07zM41.114 98.572l1.532-.55L.382-19.616l-1.531.55L41.114 98.574zm50.962-57.898.328-1.645-122.583-24.453-.329 1.646L92.076 40.675zm-57.86 35.737 1.33.314L64.263-44.93l-1.33-.314L34.217 76.412zm74.499-21.283.965-1.006-90.176-86.562-.965 1.006 90.176 86.562zM35.546 76.726a76.927 76.927 0 0 0 73.169-21.597L18.539-31.433A48.072 48.072 0 0 1 64.263-44.93L35.546 76.726zm56.858-37.697c-5.322 26.682-31.708 43.633-58.187 37.383L62.933-45.243C20.56-55.246-21.662-28.12-30.179 14.577L92.404 39.03zM42.646 98.023a76.926 76.926 0 0 0 49.43-57.347L-30.508 16.223A48.073 48.073 0 0 1 .382-19.616L42.646 98.022zm27.053-62.024c9.736 25.184-3.174 53.445-28.585 62.575L-1.149-19.064C-41.811-4.456-62.47 40.768-46.891 81.068l116.59-45.07zm-9.971 76.233a76.926 76.926 0 0 0 10.651-74.475l-116.59 45.07a48.072 48.072 0 0 1 6.656-46.54l99.283 75.945zM48.813 45.726c21.736 15.92 26.147 46.591 9.778 67.991l-99.283-75.945c-26.193 34.244-19.135 83.325 15.648 108.799L48.813 45.726zm32.621 69.707a76.926 76.926 0 0 0-31.19-68.658l-73.857 100.844a48.072 48.072 0 0 1-19.49-42.905l124.537 10.719zm-45.33-50.31C63.162 66.655 83.604 90.24 81.28 117.24L-43.26 106.521c-3.719 43.206 28.992 80.944 72.287 83.399l7.077-124.798zm65.342 41.345a76.925 76.925 0 0 0-63.868-41.262L30.5 190.004a48.073 48.073 0 0 1-39.913-25.786l110.858-57.75zm-65.797-18.17c23.689-13.549 53.892-4.683 66.5 19.519L-8.709 165.568c20.176 38.729 68.508 52.916 106.416 31.235L35.649 88.298zm77.543-.663a76.927 76.927 0 0 0-76.384 0L98.867 196.14a48.074 48.074 0 0 1-47.734 0l62.059-108.505zm-65.341 20.182c12.608-24.202 42.811-33.068 66.5-19.52L52.293 196.804c37.908 21.681 86.24 7.495 106.416-31.235L47.851 107.817zm64.571-42.611a76.925 76.925 0 0 0-63.868 41.262l110.858 57.75a48.074 48.074 0 0 1-39.913 25.786l-7.077-124.798zm-43.7 52.034c-2.325-27 18.117-50.584 45.173-52.118l7.077 124.798c43.295-2.455 76.006-40.193 72.287-83.399L68.721 117.24zm31.033-70.465a76.926 76.926 0 0 0-31.19 68.658l124.539-10.719a48.073 48.073 0 0 1-19.491 42.905L99.755 46.775zm-8.346 66.942c-16.37-21.4-11.958-52.072 9.778-67.99l73.857 100.844c34.783-25.474 41.841-74.555 15.648-108.799l-99.283 75.945zM79.62 37.757a76.926 76.926 0 0 0 10.651 74.474l99.283-75.945a48.072 48.072 0 0 1 6.656 46.54l-116.59-45.07zm29.265 60.816c-25.411-9.13-38.32-37.39-28.585-62.575l116.59 45.07c15.579-40.3-5.08-85.524-45.742-100.132L108.886 98.573zM57.924 40.675a76.927 76.927 0 0 0 49.43 57.347l42.264-117.637a48.074 48.074 0 0 1 30.89 35.837L57.924 40.675zm57.86 35.737c-26.48 6.25-52.866-10.7-58.188-37.383l122.583-24.452c-8.517-42.697-50.739-69.823-93.112-59.82l28.717 121.655zM41.285 55.129a76.927 76.927 0 0 0 73.169 21.597L85.737-44.93a48.073 48.073 0 0 1 45.724 13.496L41.285 55.129zm89.211-87.568c-30.276-31.54-80.716-31.54-110.992 0l90.176 86.562c-18.92 19.71-50.44 19.71-69.36 0l90.176-86.562z" fill="#929292" fill-opacity=".1" mask="url(#b)"/><path d="M24.324 76.324c0-28.718 23.28-52 52-52 28.718 0 51.999 23.282 51.999 52v1.07c0 28.718-23.281 52-52 52-28.718 0-52-23.281-52-52v-1.07z" fill="#000" fill-opacity=".04"/><path d="M29.71 76.324c0-25.743 20.87-46.613 46.614-46.613 25.743 0 46.613 20.87 46.613 46.613v1.07c0 25.744-20.87 46.613-46.613 46.613-25.744 0-46.614-20.869-46.614-46.613v-1.07z" stroke="#fff" stroke-opacity=".3" stroke-width="10.773"/><path d="M67.586 86.299 57.6 76.212a2.851 2.851 0 0 0-2.028-.85c-.761 0-1.491.305-2.029.85a2.916 2.916 0 0 0 0 4.099l12.028 12.15a2.845 2.845 0 0 0 4.057 0l30.443-30.755a2.916 2.916 0 0 0 0-4.099 2.852 2.852 0 0 0-2.029-.85 2.85 2.85 0 0 0-2.029.85L67.587 86.3z" fill="#fff" stroke="#FDFDFD" stroke-width="3"/><path d="M128.47 76.941c0 29.044-23.307 52.588-52.059 52.588-28.75 0-52.059-23.544-52.059-52.588 0-29.043 23.308-52.588 52.06-52.588 28.751 0 52.058 23.545 52.058 52.588zm-93.258 0c0 22.986 18.445 41.619 41.2 41.619 22.753 0 41.199-18.633 41.199-41.619 0-22.985-18.446-41.619-41.2-41.619s-41.2 18.634-41.2 41.62z" fill="#fff" fill-opacity=".5"/></g><defs><filter id="a" x="-4" y="0" width="158" height="158" filterUnits="userSpaceOnUse" color-interpolation-filters="sRGB"><feFlood flood-opacity="0" result="BackgroundImageFix"/><feColorMatrix in="SourceAlpha" values="0 0 0 0 0 0 0 0 0 0 0 0 0 0 0 0 0 0 127 0" result="hardAlpha"/><feOffset dy="4"/><feGaussianBlur stdDeviation="2"/><feComposite in2="hardAlpha" operator="out"/><feColorMatrix values="0 0 0 0 0 0 0 0 0 0 0 0 0 0 0 0 0 0 0.25 0"/><feBlend in2="BackgroundImageFix" result="effect1_dropShadow_2497_1653"/><feBlend in="SourceGraphic" in2="effect1_dropShadow_2497_1653" result="shape"/></filter></defs></svg>