<svg width="150" height="150" fill="none" xmlns="http://www.w3.org/2000/svg"><mask id="a" fill="#fff"><path d="M64.522 10.915c5.716-5.955 15.24-5.955 20.956 0l.857.893a14.524 14.524 0 0 0 13.814 4.078l1.179-.279c8-1.888 15.971 3.233 17.579 11.294l.298 1.494a14.524 14.524 0 0 0 9.333 10.827l1.386.498c7.677 2.759 11.577 11.297 8.636 18.906l-.624 1.615a14.522 14.522 0 0 0 2.011 14.06l1.043 1.365c4.945 6.465 3.613 15.732-2.954 20.541l-1.308.958a14.526 14.526 0 0 0-5.889 12.962l.143 1.654c.702 8.157-5.474 15.282-13.648 15.746l-1.318.075a14.522 14.522 0 0 0-12.059 7.79l-.631 1.211c-3.81 7.313-12.934 9.991-20.091 5.898l-1.025-.586a14.524 14.524 0 0 0-14.42 0l-1.025.586c-7.157 4.093-16.282 1.415-20.091-5.898l-.631-1.211a14.52 14.52 0 0 0-12.059-7.79l-1.318-.075c-8.174-.464-14.35-7.589-13.648-15.746l.142-1.654a14.523 14.523 0 0 0-5.888-12.962l-1.308-.958c-6.567-4.81-7.9-14.076-2.954-20.541l1.043-1.364a14.523 14.523 0 0 0 2.011-14.061l-.624-1.615c-2.941-7.61.959-16.147 8.636-18.905l1.386-.499a14.524 14.524 0 0 0 9.333-10.827l.298-1.494c1.608-8.06 9.58-13.182 17.58-11.294l1.178.279a14.524 14.524 0 0 0 13.814-4.078l.857-.893z"/></mask><path d="M64.522 10.915c5.716-5.955 15.24-5.955 20.956 0l.857.893a14.524 14.524 0 0 0 13.814 4.078l1.179-.279c8-1.888 15.971 3.233 17.579 11.294l.298 1.494a14.524 14.524 0 0 0 9.333 10.827l1.386.498c7.677 2.759 11.577 11.297 8.636 18.906l-.624 1.615a14.522 14.522 0 0 0 2.011 14.06l1.043 1.365c4.945 6.465 3.613 15.732-2.954 20.541l-1.308.958a14.526 14.526 0 0 0-5.889 12.962l.143 1.654c.702 8.157-5.474 15.282-13.648 15.746l-1.318.075a14.522 14.522 0 0 0-12.059 7.79l-.631 1.211c-3.81 7.313-12.934 9.991-20.091 5.898l-1.025-.586a14.524 14.524 0 0 0-14.42 0l-1.025.586c-7.157 4.093-16.282 1.415-20.091-5.898l-.631-1.211a14.52 14.52 0 0 0-12.059-7.79l-1.318-.075c-8.174-.464-14.35-7.589-13.648-15.746l.142-1.654a14.523 14.523 0 0 0-5.888-12.962l-1.308-.958c-6.567-4.81-7.9-14.076-2.954-20.541l1.043-1.364a14.523 14.523 0 0 0 2.011-14.061l-.624-1.615c-2.941-7.61.959-16.147 8.636-18.905l1.386-.499a14.524 14.524 0 0 0 9.333-10.827l.298-1.494c1.608-8.06 9.58-13.182 17.58-11.294l1.178.279a14.524 14.524 0 0 0 13.814-4.078l.857-.893z" fill="#DBCC96"/><path d="m49.851 15.886-14.442 61.18 14.442-61.18zm13.814-4.078 45.35 43.532-45.35-43.532zm-14.993 3.8-14.441 61.18 14.441-61.18zm-27.21 23.614L.208-19.938l21.254 59.16zM11.44 58.626l58.633-22.667L11.44 58.625zm8.636-18.905L-1.18-19.44l21.255 59.16zm-8.012 20.52 58.634-22.666L12.064 60.24zm-.1 35.966 37.143-50.715-37.143 50.715zm22.02 31.395-3.558 62.761 3.558-62.761zm32.781 14.899-31.21-54.568 31.21 54.568zm-20.091-5.898 55.751-29.043-55.751 29.043zm35.536 5.312 31.21-54.568-31.21 54.568zm-14.42 0 31.209 54.567-31.21-54.567zm35.536-5.312-55.75-29.043 55.75 29.043zm-20.091 5.898-31.21 54.567 31.21-54.567zm32.781-14.899-3.559-62.762 3.559 62.762zm-12.059 7.79-55.75-29.043 55.75 29.043zm13.377-7.865 3.559 62.761-3.559-62.761zm19.394-30.362 37.143 50.715-37.143-50.715zm-5.889 12.962 62.631-5.39-62.631 5.39zm7.097-49.886 58.633 22.666-58.633-22.666zm2.011 14.06-49.93 38.193 49.93-38.192zm-10.023-34.58L108.67 98.88l21.254-59.16zm-1.386-.499-21.255 59.16 21.255-59.16zm-27.21-23.615-14.442-61.18 14.442 61.18zm-14.993-3.799L40.985 55.34l45.35-43.532zm-21.813-.893-45.35-43.532 45.35 43.532zM40.128 54.447l.857.893 90.7-87.064-.858-.893-90.7 87.064zm74.463 22.62 1.178-.279L86.886-45.574l-1.179.279 28.884 122.361zM57.26 39.198l.298 1.494 123.295-24.595-.298-1.494L57.26 39.199zm50.023 59.183 1.387.498 42.509-118.32-1.387-.498-42.509 118.32zM79.927 35.96l-.625 1.616 117.267 45.332.625-1.615L79.927 35.959zm10.09 76.535 1.043 1.365 99.86-76.386-1.044-1.364-99.86 76.385zm10.876-67.002-1.308.958 74.286 101.43 1.308-.958-74.286-101.43zm-32.684 70.026.142 1.654 125.261-10.781-.142-1.654-125.261 10.781zm45.566-50.752-1.318.074 7.117 125.523 1.319-.075-7.118-125.523zm-65.569 41.583-.63 1.211 111.501 58.087.631-1.212-111.502-58.086zm66.238-18.416-1.024-.586-62.419 109.135 1.025.586 62.418-109.135zm-77.864-.586-1.024.586 62.418 109.135 1.025-.586L36.58 87.347zm65.845 20.213-.631-1.211-111.502 58.086.631 1.212 111.502-58.087zM37.543 64.84l-1.318-.075-7.118 125.523 1.319.075L37.543 64.84zm44.106 52.332.142-1.654-125.261-10.781-.142 1.654 125.26 10.781zM50.415 46.45l-1.308-.958-74.286 101.43 1.308.958L50.415 46.45zm8.525 67.409 1.043-1.365-99.86-76.385-1.043 1.364 99.86 76.386zm11.758-76.284-.625-1.616-117.267 45.333.625 1.615L70.698 37.575zM41.33 98.88l1.387-.498L.208-19.938l-1.387.498 42.51 118.32zm51.112-58.187.298-1.494-123.295-24.595-.298 1.494L92.442 40.693zM34.231 76.788l1.178.278L64.293-45.295l-1.179-.279L34.231 76.788zm74.784-21.448.857-.893-90.7-87.064-.857.893 90.7 87.064zM35.409 77.066a77.386 77.386 0 0 0 73.606-21.726l-90.7-87.064a48.339 48.339 0 0 1 45.978-13.571L35.409 77.066zM92.74 39.2c-5.352 26.83-31.883 43.874-58.51 37.59L63.115-45.575c-42.626-10.062-85.1 17.226-93.669 60.178L92.74 39.199zM42.717 98.382a77.386 77.386 0 0 0 49.725-57.69L-30.853 16.099A48.339 48.339 0 0 1 .208-19.938l42.509 118.32zM70.073 35.96c9.79 25.324-3.191 53.742-28.743 62.921L-1.179-19.44C-42.084-4.742-62.866 40.75-47.194 81.293L70.073 35.959zm-10.09 76.535a77.385 77.385 0 0 0 10.715-74.92L-46.569 82.908a48.338 48.338 0 0 1 6.693-46.798l99.86 76.385zM49.107 45.492C70.964 61.499 75.4 92.34 58.94 113.859l-99.86-76.386c-26.35 34.448-19.25 83.823 15.74 109.449l74.287-101.43zm32.684 70.026A77.386 77.386 0 0 0 50.415 46.45L-23.87 147.88a48.338 48.338 0 0 1-19.6-43.143l125.262 10.781zM36.225 64.766c27.206 1.542 47.76 25.256 45.424 52.406l-125.261-10.781c-3.741 43.464 29.165 81.428 72.72 83.897l7.117-125.523zm65.569 41.583a77.387 77.387 0 0 0-64.25-41.509l-7.118 125.523a48.34 48.34 0 0 1-40.134-25.928l111.502-58.086zM35.556 87.933c23.82-13.624 54.19-4.71 66.869 19.627L-9.077 165.647c20.297 38.96 68.917 53.232 107.051 31.421L35.556 87.933zm77.864-.586a77.386 77.386 0 0 0-76.84 0L99 196.482a48.334 48.334 0 0 1-47.998 0L113.42 87.347zM47.575 107.56c12.678-24.336 43.049-33.25 66.869-19.627L52.026 197.068c38.134 21.811 86.754 7.539 107.051-31.421L47.575 107.56zm64.882-42.72a77.386 77.386 0 0 0-64.25 41.509l111.501 58.086a48.34 48.34 0 0 1-40.134 25.928L112.457 64.84zm-44.106 52.332c-2.337-27.15 18.218-50.864 45.424-52.406l7.118 125.522c43.554-2.469 76.46-40.433 72.719-83.897l-125.26 10.781zM99.585 46.45a77.386 77.386 0 0 0-31.376 69.068l125.261-10.781a48.34 48.34 0 0 1-19.599 43.143L99.585 46.45zm-8.525 67.409c-16.46-21.518-12.024-52.36 9.833-68.367l74.286 101.43c34.99-25.626 42.091-75 15.741-109.449L91.06 113.86zM79.302 37.575a77.385 77.385 0 0 0 10.715 74.919l99.859-76.385a48.337 48.337 0 0 1 6.693 46.798L79.302 37.575zM108.67 98.88C83.118 89.7 70.137 61.283 79.927 35.96l117.267 45.332c15.672-40.542-5.11-86.035-46.015-100.731L108.67 98.88zM57.558 40.694a77.386 77.386 0 0 0 49.725 57.69l42.509-118.32a48.34 48.34 0 0 1 31.061 36.035L57.558 40.693zm58.211 36.095c-26.626 6.285-53.158-10.76-58.51-37.59l123.296-24.594c-8.568-42.952-51.043-70.24-93.67-60.178L115.77 76.788zM40.985 55.34a77.386 77.386 0 0 0 73.606 21.726L85.707-45.295a48.34 48.34 0 0 1 45.978 13.57l-90.7 87.065zm89.842-87.957c-30.456-31.728-81.198-31.728-111.654 0l90.699 87.064c-19.024 19.819-50.72 19.819-69.744 0l90.699-87.064z" fill="#929292" fill-opacity=".1" mask="url(#a)"/><path d="M24.323 76.324c0-28.718 23.282-52 52-52 28.719 0 52 23.282 52 52v1.07c0 28.718-23.281 52-52 52-28.718 0-52-23.281-52-52v-1.07z" fill="#000" fill-opacity=".04"/><path d="M29.746 76.324c0-25.724 20.854-46.577 46.577-46.577 25.724 0 46.577 20.853 46.577 46.577v1.07c0 25.724-20.853 46.577-46.577 46.577-25.723 0-46.577-20.853-46.577-46.577v-1.07z" stroke="#fff" stroke-opacity=".3" stroke-width="10.845"/><path d="M67.586 86.299 57.6 76.212a2.851 2.851 0 0 0-2.028-.85c-.761 0-1.491.305-2.029.85a2.916 2.916 0 0 0 0 4.099l12.028 12.15a2.845 2.845 0 0 0 4.057 0l30.443-30.755a2.916 2.916 0 0 0 0-4.099 2.852 2.852 0 0 0-2.029-.85 2.85 2.85 0 0 0-2.029.85L67.587 86.3z" fill="#fff" stroke="#FDFDFD" stroke-width="3"/><path d="M128.47 76.941c0 29.044-23.307 52.589-52.058 52.589-28.752 0-52.06-23.545-52.06-52.589 0-29.043 23.308-52.588 52.06-52.588 28.751 0 52.058 23.545 52.058 52.588zm-93.258 0c0 22.986 18.446 41.619 41.2 41.619s41.199-18.633 41.199-41.619c0-22.985-18.445-41.619-41.2-41.619-22.753 0-41.2 18.634-41.2 41.62z" fill="#fff" fill-opacity=".5"/></svg>