<svg width="24" height="24" viewBox="0 0 24 24" fill="none" xmlns="http://www.w3.org/2000/svg">
<path d="M11.9162 24C10.0809 24 8.32048 23.5899 6.68386 22.7813C6.58081 22.7303 6.46117 22.7172 6.34762 22.7445C5.36699 22.9794 3.40141 23.5052 2.31702 23.7977C1.82282 23.9313 1.31345 23.7888 0.954177 23.4171C0.600035 23.0509 0.462724 22.5142 0.595856 22.0167C0.874776 20.974 1.3168 19.3244 1.59596 18.2955C1.63261 18.1602 1.61315 18.015 1.54127 17.8863C0.541528 16.0991 0.0130615 14.0637 0.0130615 12.0001C0.0129421 5.38323 5.35278 0 11.9162 0C18.4797 0 23.8195 5.38323 23.8195 12.0001C23.8195 18.6169 18.4797 24 11.9162 24ZM6.46404 20.9892C6.79454 20.9892 7.12325 21.0648 7.42271 21.2126C8.82698 21.9065 10.3389 22.2584 11.9162 22.2584C17.542 22.2584 22.119 17.6565 22.119 12.0001C22.119 6.34362 17.542 1.74174 11.9162 1.74174C6.29043 1.74174 1.71345 6.34362 1.71345 12.0001C1.71345 13.7603 2.16406 15.4964 3.01658 17.0204C3.31628 17.5562 3.39353 18.1747 3.23425 18.7618C2.99652 19.6382 2.64035 20.9657 2.36788 21.9832C3.62565 21.6453 5.1209 21.2497 5.96017 21.0486C6.12613 21.0089 6.29533 20.9892 6.46404 20.9892Z" fill="#ECECEC"/>
<path d="M14.9713 18.2128C14.5437 18.2128 14.1283 18.1481 13.7363 18.0207C13.235 17.8579 12.6727 17.6639 11.9601 17.3486C9.40808 16.2203 7.55354 13.8883 6.67511 12.5986C6.65016 12.5619 6.63273 12.5363 6.62294 12.523C6.23381 11.9913 5.33496 10.6076 5.33496 9.17039C5.33496 7.66175 6.07441 6.85386 6.39022 6.50886L6.44992 6.44319C6.80216 6.04927 7.20621 6.00671 7.36358 6.00671C7.53922 6.00671 7.76608 6.00806 7.96297 6.01809C7.97586 6.0187 7.98912 6.01882 8.00273 6.01882L8.05109 6.0187C8.27425 6.0187 8.53179 6.06652 8.76391 6.63752C8.85 6.84933 8.97644 7.16449 9.10957 7.49616C9.37022 8.14567 9.6655 8.88189 9.71517 8.98377C9.79028 9.13749 9.87481 9.37389 9.74096 9.64833L9.6981 9.73736C9.61906 9.90246 9.55673 10.0329 9.41512 10.2022C9.36378 10.2636 9.31064 10.3299 9.25763 10.396C9.15125 10.5287 9.04128 10.6661 8.94432 10.7648C8.78242 10.9299 8.69716 11.0346 8.82743 11.2635C9.04665 11.6486 9.65106 12.6308 10.5261 13.4298C11.5012 14.3203 12.3326 14.6896 12.7794 14.888C12.8669 14.9269 12.9378 14.9584 12.9899 14.9851C13.1068 15.045 13.1995 15.0742 13.2734 15.0742C13.3608 15.0742 13.4338 15.0325 13.5172 14.9347C13.7414 14.6722 14.2971 13.9983 14.4882 13.7044C14.6192 13.5031 14.7665 13.4093 14.952 13.4093C15.0754 13.4093 15.1989 13.4515 15.3251 13.4986C15.6273 13.6112 17.2459 14.4292 17.4532 14.5354C17.5131 14.5662 17.5692 14.594 17.6212 14.6197C17.8582 14.7369 18.0148 14.8145 18.0955 14.9522C18.2114 15.1503 18.1698 15.8608 17.9249 16.5636C17.6433 17.3716 16.332 18.0603 15.7404 18.1508C15.4667 18.1925 15.2152 18.2128 14.9713 18.2128Z" fill="#ECECEC"/>
</svg>
